<?xml version="1.0" standalone="no"?><!DOCTYPE svg PUBLIC "-//W3C//DTD SVG 1.1//EN" "http://www.w3.org/Graphics/SVG/1.1/DTD/svg11.dtd"><svg t="1496732702364" class="icon" style="" viewBox="0 0 1024 1024" version="1.1" xmlns="http://www.w3.org/2000/svg" p-id="3248" xmlns:xlink="http://www.w3.org/1999/xlink" width="64" height="64"><defs><style type="text/css"></style></defs><path d="M511.887473 450.402462L291.090158 229.605147c-16.97835-16.97835-44.506661-16.97835-61.485011 0s-16.97835 44.506661 0 61.485011L450.402462 511.887473 229.605147 732.686833c-16.97835 16.97835-16.97835 44.505638 0 61.485011 16.97835 16.97835 44.506661 16.97835 61.485011 0L511.887473 573.372484 732.686833 794.170821c16.97835 16.97835 44.505638 16.97835 61.485011 0 16.97835-16.979373 16.97835-44.506661 0-61.485011L573.372484 511.887473l220.798337-220.797315c16.97835-16.97835 16.97835-44.506661 0-61.485011-16.979373-16.97835-44.506661-16.97835-61.485011 0L511.887473 450.402462z" fill="#2c2c2c" p-id="3249"></path></svg>