<?xml version="1.0" standalone="no"?><!DOCTYPE svg PUBLIC "-//W3C//DTD SVG 1.1//EN" "http://www.w3.org/Graphics/SVG/1.1/DTD/svg11.dtd"><svg t="1495507416302" class="icon" style="" viewBox="0 0 1024 1024" version="1.1" xmlns="http://www.w3.org/2000/svg" p-id="17921" xmlns:xlink="http://www.w3.org/1999/xlink" width="200" height="200"><defs><style type="text/css"></style></defs><path d="M512 934.854681c-56.591903 0-111.497397-11.086499-163.192779-32.951483-49.925063-21.116947-94.759177-51.344389-133.258003-89.843215-38.497802-38.498826-68.725244-83.33294-89.841168-133.258003-21.864984-51.695383-32.951483-106.600877-32.951483-163.191756 0-56.590879 11.086499-111.497397 32.951483-163.191756 21.115923-49.925063 51.343365-94.759177 89.841168-133.258003 38.498826-38.498826 83.33294-68.726268 133.258003-89.842191 51.695383-21.866007 106.600877-32.952506 163.192779-32.952506s111.49842 11.086499 163.193803 32.952506c49.92404 21.115923 94.759177 51.343365 133.258003 89.842191 38.497802 38.498826 68.724221 83.33294 89.841167 133.258003 21.864984 51.695383 32.951483 106.600877 32.951483 163.191756 0 56.590879-11.086499 111.496373-32.951483 163.191756-21.116947 49.925063-51.343365 94.759177-89.841167 133.258003-38.498826 38.498826-83.333964 68.726268-133.258003 89.843215-51.695383 21.864984-106.6019 32.951483-163.193803 32.951483z m0-811.881929c-53.011354 0-104.430444 10.379395-152.828734 30.849612-46.753837 19.775392-88.745207 48.088228-124.808564 84.151586-36.063357 36.063357-64.376193 78.05575-84.150562 124.808563-20.470217 48.397267-30.849612 99.816357-30.849612 152.827711s10.379395 104.429421 30.849612 152.827711c19.774369 46.752814 48.087205 88.745207 84.150562 124.808564 36.063357 36.063357 78.05575 64.376193 124.808564 84.151585 48.397267 20.470217 99.816357 30.849612 152.828734 30.849612 53.012378 0 104.431467-10.380418 152.828734-30.849612 46.752814-19.775392 88.74623-48.088228 124.808564-84.151585 36.063357-36.063357 64.376193-78.054727 84.150562-124.808564 20.47124-48.39829 30.849612-99.816357 30.849612-152.827711s-10.379395-104.429421-30.849612-152.827711c-19.774369-46.752814-48.087205-88.745207-84.149539-124.808563-36.063357-36.063357-78.05575-64.376193-124.809587-84.151586-48.397267-20.470217-99.81738-30.849612-152.828734-30.849612z" fill="#2c2c2c" p-id="17922"></path><path d="M512 807.966759c-78.091566 0-151.509692-30.411637-206.728318-85.631286-55.217602-55.218626-85.628216-128.634706-85.628216-206.725249s30.40959-151.506623 85.628216-206.725248c55.218626-55.219649 128.635729-85.630263 206.728318-85.630263 78.089519 0 151.506623 30.410614 206.726272 85.630263s85.630263 128.635729 85.630262 206.725248c0 78.089519-30.410614 151.505599-85.630262 206.725249s-128.637776 85.631286-206.726272 85.631286z m0-570.385759c-74.265424 0-144.084583 28.92068-196.597587 81.434707-52.511981 52.513004-81.431637 122.331139-81.431637 196.595541 0 74.262354 28.919656 144.082536 81.431637 196.594516 52.513004 52.514027 122.332163 81.434707 196.597587 81.434708 74.262354 0 144.081513-28.92068 196.59554-81.434708 52.513004-52.513004 81.433684-122.332163 81.433684-196.594516s-28.92068-144.081513-81.433684-196.595541c-52.514027-52.514027-122.333186-81.434707-196.59554-81.434707z" fill="#2c2c2c" p-id="17923"></path><path d="M512 702.385095c-102.987582 0-186.774871-83.786265-186.774871-186.773847s83.786265-186.774871 186.774871-186.774871c102.988606 0 186.774871 83.786265 186.774871 186.774871s-83.787288 186.773847-186.774871 186.773847z m0-359.223455c-95.087659 0-172.448584 77.359902-172.448584 172.448584s77.359902 172.447561 172.448584 172.447561c95.088682 0 172.448584-77.359902 172.448584-172.447561s-77.359902-172.448584-172.448584-172.448584z" fill="#2c2c2c" p-id="17924"></path><path d="M512 610.151437c-52.129264 0-94.54019-42.410925-94.54019-94.541213s42.410925-94.54019 94.54019-94.540189 94.541213 42.410925 94.541213 94.540189-42.411949 94.541213-94.541213 94.541213z m0-174.755116c-44.230364 0-80.213903 35.984562-80.213903 80.213903s35.984562 80.214926 80.213903 80.214927 80.214926-35.984562 80.214926-80.214927-35.985586-80.213903-80.214926-80.213903z" fill="#2c2c2c" p-id="17925"></path><path d="M532.665669 515.610224c0 11.411911-9.259898 20.665669-20.665669 20.665669s-20.665669-9.253758-20.665669-20.665669 9.259898-20.665669 20.665669-20.665668c11.405771 0.001023 20.665669 9.253758 20.665669 20.665668z" fill="#2c2c2c" p-id="17926"></path><path d="M512 537.555026c-12.100596 0-21.944801-9.844206-21.944801-21.943778 0-12.100596 9.844206-21.944801 21.944801-21.944802 12.099572 0 21.943778 9.844206 21.943778 21.944802 0 12.099572-9.844206 21.943778-21.943778 21.943778z m0-41.330314c-10.689457 0-19.386536 8.697079-19.386536 19.386536s8.697079 19.385513 19.386536 19.385512 19.385513-8.697079 19.385513-19.385512c0-10.69048-8.696056-19.386536-19.385513-19.386536z" fill="#2c2c2c" p-id="17927"></path></svg>