<?xml version="1.0" standalone="no"?><!DOCTYPE svg PUBLIC "-//W3C//DTD SVG 1.1//EN" "http://www.w3.org/Graphics/SVG/1.1/DTD/svg11.dtd"><svg t="1495507339159" class="icon" style="" viewBox="0 0 1024 1024" version="1.1" xmlns="http://www.w3.org/2000/svg" p-id="11615" xmlns:xlink="http://www.w3.org/1999/xlink" width="200" height="200"><defs><style type="text/css"></style></defs><path d="M789.952 312.448 766.72 312.448l0 581.696-76.352 0L690.368 312.448 562.944 312.448l0 581.696L486.528 894.144 486.528 312.448l-127.36 0 0 581.696L282.688 894.144 282.688 312.448l-48.64 0c-57.536 0-104.256-0.832-104.256 0l0 607.808c0 55.936 46.656 101.248 104.256 101.248l555.904 0c57.536 0 104.192-45.312 104.192-101.248L894.144 312.448C894.144 308.16 847.488 312.448 789.952 312.448L789.952 312.448zM944.192 129.856l-228.352 0L715.84 67.712c0-36.032-64.384-65.216-101.952-65.216L410.048 2.496c-37.504 0-101.888 29.184-101.888 65.216l0 62.144L79.808 129.856c-28.672 0-51.904 22.848-51.904 50.944s23.232 50.944 51.904 50.944l864.384 0c28.672 0 51.904-22.784 51.904-50.944S972.8 129.856 944.192 129.856L944.192 129.856zM613.888 129.856 410.112 129.856 410.112 104.384l203.776 0L613.888 129.856 613.888 129.856zM613.888 129.856" p-id="11616" fill="#d81e06"></path></svg>