<?xml version="1.0" standalone="no"?><!DOCTYPE svg PUBLIC "-//W3C//DTD SVG 1.1//EN" "http://www.w3.org/Graphics/SVG/1.1/DTD/svg11.dtd"><svg t="1495507860067" class="icon" style="" viewBox="0 0 1024 1024" version="1.1" xmlns="http://www.w3.org/2000/svg" p-id="20032" xmlns:xlink="http://www.w3.org/1999/xlink" width="200" height="200"><defs><style type="text/css"></style></defs><path d="M913.408 1024l-66.56 0q-29.696 0-51.2-5.12t-36.864-15.872-26.112-27.136-19.968-37.888q-15.36-38.912-28.16-70.656t-22.016-55.296q-11.264-26.624-20.48-49.152l-254.976 0q-7.168 23.552-17.408 51.2-8.192 23.552-21.504 56.832t-30.72 72.192q-20.48 46.08-47.104 63.488t-60.416 17.408l-70.656 0q-45.056 0-60.928-19.968t2.56-68.096q18.432-46.08 43.008-108.544t52.224-132.608 57.344-143.872 57.344-144.384q65.536-164.864 137.216-343.04 7.168-17.408 18.432-31.744 10.24-11.264 27.136-21.504t42.496-10.24q26.624 0 43.52 10.752t28.16 24.064q12.288 15.36 19.456 33.792 72.704 180.224 138.24 345.088 27.648 70.656 57.344 143.872t56.832 142.336 51.2 129.536 41.472 104.448q14.336 34.816 4.096 62.464t-43.008 27.648zM616.448 634.88l-97.28-347.136-1.024 0-108.544 347.136 206.848 0z" p-id="20033"></path></svg>