<?xml version="1.0" standalone="no"?><!DOCTYPE svg PUBLIC "-//W3C//DTD SVG 1.1//EN" "http://www.w3.org/Graphics/SVG/1.1/DTD/svg11.dtd"><svg t="1495429821366" class="icon" style="" viewBox="0 0 1024 1024" version="1.1" xmlns="http://www.w3.org/2000/svg" p-id="2362" xmlns:xlink="http://www.w3.org/1999/xlink" width="200" height="200"><defs><style type="text/css"></style></defs><path d="M906.24 549.4272C854.784 329.4208 730.6752 153.6 539.4944 0c59.136 240.8448 36.096 410.112-58.1632 440.1664-118.8352 37.8368-160.3072-80.4864-174.1824-148.736-67.0208 68.6592-96.512 138.24-123.5968 209.2032-62.9248 165.376-29.1328 327.1168 113.0496 441.0368 113.2032 90.7264 297.984 117.8112 456.8064 22.8864 157.8496-94.2592 192.4608-245.9648 152.832-415.1296zM723.3024 814.08c-39.1168 90.6752-112.4352 141.4656-215.808 127.0784-76.4416-10.5472-135.4752-52.3264-137.5232-134.144-2.8672-112.9984 82.6368-124.416 170.2912-134.8608 115.8144-13.7728 144.0768-108.3904 175.5136-233.5744 66.304 153.856 47.4112 283.0848 7.5264 375.5008z" fill="#FE851A" p-id="2363"></path></svg>