<?xml version="1.0" standalone="no"?><!DOCTYPE svg PUBLIC "-//W3C//DTD SVG 1.1//EN" "http://www.w3.org/Graphics/SVG/1.1/DTD/svg11.dtd"><svg t="1496733806750" class="icon" style="" viewBox="0 0 1024 1024" version="1.1" xmlns="http://www.w3.org/2000/svg" p-id="4546" xmlns:xlink="http://www.w3.org/1999/xlink" width="64" height="64"><defs><style type="text/css"></style></defs><path d="M512 0C229.248 0 0 229.248 0 512s229.248 512 512 512 512-229.248 512-512S794.752 0 512 0zM192.384 424.896l279.744-218.88c3.008-2.368 7.552-3.072 11.456-1.792 3.968 1.28 6.528 4.288 6.528 7.616l0 124.736 314.56 0c2.752 0 4.992 2.24 4.992 4.992l0 92.48c0.064 2.752-2.176 4.928-4.928 4.928L198.848 438.976C187.264 438.976 189.376 427.264 192.384 424.896zM831.552 599.104l-279.68 218.88c-3.008 2.368-7.552 3.072-11.52 1.792-3.904-1.28-6.464-4.288-6.464-7.616l0-124.736L219.328 687.424c-2.752 0-4.992-2.24-4.992-4.992L214.336 589.952c0-2.752 2.24-4.992 4.992-4.992l605.888 0C836.736 584.96 834.624 596.736 831.552 599.104z" p-id="4547" fill="#2c2c2c"></path></svg>