<?xml version="1.0" standalone="no"?><!DOCTYPE svg PUBLIC "-//W3C//DTD SVG 1.1//EN" "http://www.w3.org/Graphics/SVG/1.1/DTD/svg11.dtd"><svg t="1496731886733" class="icon" style="" viewBox="0 0 1024 1024" version="1.1" xmlns="http://www.w3.org/2000/svg" p-id="2372" xmlns:xlink="http://www.w3.org/1999/xlink" width="64" height="64"><defs><style type="text/css"></style></defs><path d="M512 0C229.227789 0 0 229.227789 0 512c0 282.758737 229.227789 512 512 512 282.758737 0 512-229.241263 512-512C1024 229.227789 794.758737 0 512 0zM512 997.052632C244.116211 997.052632 26.947368 779.883789 26.947368 512 26.947368 244.116211 244.116211 26.947368 512 26.947368c267.883789 0 485.052632 217.168842 485.052632 485.052632C997.052632 779.883789 779.883789 997.052632 512 997.052632z" p-id="2373" fill="#2c2c2c"></path><path d="M209.960421 547.934316c0 0-10.105263-38.184421 25.829053-22.460632l162.802526 161.684211c0 0 19.092211 19.078737 31.434105 0L771.368421 322.250105c0 0 30.329263-14.592 28.079158 16.842105L440.144842 724.210526c0 0-23.578947 21.328842-49.408 0L209.960421 547.934316z" p-id="2374" fill="#2c2c2c"></path></svg>