<?xml version="1.0" standalone="no"?><!DOCTYPE svg PUBLIC "-//W3C//DTD SVG 1.1//EN" "http://www.w3.org/Graphics/SVG/1.1/DTD/svg11.dtd"><svg t="1495507264695" class="icon" style="" viewBox="0 0 1024 1024" version="1.1" xmlns="http://www.w3.org/2000/svg" p-id="5398" xmlns:xlink="http://www.w3.org/1999/xlink" width="200" height="200"><defs><style type="text/css"></style></defs><path d="M394.24 905.344a12.288 12.288 0 0 1-8.384 3.456l-267.328-1.152a12.352 12.352 0 0 1-12.224-12.16l-1.152-267.456a11.648 11.648 0 0 1 3.456-8.384l285.632 285.696z" fill="#2C76A9" p-id="5399"></path><path d="M573.568 154.944l35.712-35.776c39.552-39.488 114.176-28.928 166.784 23.68l95.104 95.168c52.608 52.608 63.232 127.232 23.744 166.72l-35.776 35.776-285.568-285.568zM537.856 190.656l285.568 285.632-393.344 393.344-285.568-285.632 393.344-393.344z" fill="#388FCB" p-id="5400"></path></svg>