<?xml version="1.0" standalone="no"?><!DOCTYPE svg PUBLIC "-//W3C//DTD SVG 1.1//EN" "http://www.w3.org/Graphics/SVG/1.1/DTD/svg11.dtd"><svg t="1495507295249" class="icon" style="" viewBox="0 0 1024 1024" version="1.1" xmlns="http://www.w3.org/2000/svg" p-id="7458" xmlns:xlink="http://www.w3.org/1999/xlink" width="200" height="200"><defs><style type="text/css"></style></defs><path d="M79.068993 65.73412c-3.917377 0.044002-7.834753 1.531889-10.81065 4.551666-2.997387 2.975774-4.485335 6.91448-4.485335 10.853186l0.152479 318.693366c0 1.968841 1.181967 3.894703 3.151912 4.726651 1.968922 0.787946 4.157863 0.305969 5.580317-1.137916l107.730927-107.223047 144.439448 143.810337c2.7569 2.756787 6.608782 4.463662 10.85363 4.463662 4.200844 0 8.052726-1.706875 10.809626-4.463662l98.079731-97.638761c2.800904-2.756787 4.507849-6.608511 4.507849-10.897188 0-4.244674-1.706945-8.096399-4.507849-10.897188L300.230897 176.85187l104.688513-104.247272c1.443944-1.399883 1.925941-3.588735 1.093959-5.601578-0.787978-1.968841-2.713919-3.15076-4.726845-3.15076L79.068993 65.73412z" p-id="7459"></path><path d="M79.178491 960.14774c-3.938867 0.044002-7.877734-1.487887-10.876144-4.463662-3.0199-3.018753-4.529339-6.958482-4.529339-10.896164l0.152479-321.363172c0-2.012843 1.181967-3.938706 3.151912-4.725628 1.968922-0.831948 4.157863-0.306992 5.580317 1.093914l107.730927 107.266026 144.439448-143.853315c2.7569-2.756787 6.608782-4.463662 10.85363-4.463662 4.200844 0 8.052726 1.706875 10.809626 4.463662l98.079731 97.637738c2.800904 2.800789 4.507849 6.652514 4.507849 10.897188s-1.706945 8.140401-4.507849 10.897188L300.230897 846.360184l104.776521 104.334253c1.444968 1.443885 1.925941 3.632737 1.137963 5.602601-0.831982 1.968841-2.713919 3.15076-4.726845 3.194762L79.178491 960.14774z" p-id="7460"></path><path d="M944.90747 65.73412c3.938867 0.044002 7.83373 1.531889 10.809626 4.551666 3.0199 2.975774 4.507849 6.91448 4.507849 10.853186l-0.174993 318.693366c0 1.968841-1.181967 3.894703-3.151912 4.726651-1.968922 0.787946-4.157863 0.305969-5.557804-1.137916L843.588842 296.197002 699.159627 440.007339c-2.800904 2.756787-6.608782 4.463662-10.85363 4.463662s-8.052726-1.706875-10.85363-4.463662l-98.036751-97.638761c-2.800904-2.756787-4.507849-6.608511-4.507849-10.897188 0-4.244674 1.706945-8.096399 4.507849-10.853186l144.385211-143.766334L619.068309 72.604598c-1.444968-1.399883-1.925941-3.588735-1.093959-5.601578 0.787978-1.968841 2.712896-3.15076 4.726845-3.15076L944.90747 65.73412z" p-id="7461"></path><path d="M944.819462 960.14774c3.93989 0.044002 7.877734-1.487887 10.85363-4.463662 3.0199-3.018753 4.551852-6.958482 4.551852-10.896164l-0.174993-321.363172c0-2.012843-1.181967-3.938706-3.151912-4.725628-1.968922-0.831948-4.157863-0.306992-5.557804 1.093914L843.588842 727.058031 699.159627 583.204715c-2.800904-2.756787-6.608782-4.463662-10.85363-4.463662s-8.052726 1.706875-10.85363 4.463662l-98.036751 97.637738c-2.800904 2.800789-4.507849 6.652514-4.507849 10.897188s1.706945 8.140401 4.507849 10.897188l144.385211 143.722332L618.980302 950.694437c-1.443944 1.443885-1.925941 3.632737-1.137963 5.602601 0.831982 1.968841 2.713919 3.15076 4.726845 3.194762L944.819462 960.14774z" p-id="7462"></path></svg>