<?xml version="1.0" standalone="no"?><!DOCTYPE svg PUBLIC "-//W3C//DTD SVG 1.1//EN" "http://www.w3.org/Graphics/SVG/1.1/DTD/svg11.dtd"><svg t="1495507241814" class="icon" style="" viewBox="0 0 1081 1024" version="1.1" xmlns="http://www.w3.org/2000/svg" p-id="3257" xmlns:xlink="http://www.w3.org/1999/xlink" width="211.1328125" height="200"><defs><style type="text/css"></style></defs><path d="M1015.291 373.902l-311.527-311.527c-18.761-18.767-44.683-30.375-73.315-30.375s-54.554 11.608-73.315 30.375l-494.758 494.787c-18.767 18.761-30.375 44.683-30.375 73.315s11.608 54.554 30.375 73.315l219.975 219.89c42.207 42.21 100.517 68.317 164.924 68.317s122.718-26.108 164.924-68.317l403.078-403.078c18.754-18.768 30.352-44.687 30.352-73.315s-11.599-54.548-30.353-73.316zM337.287 901.004l-141.563-138.801-100.449-100.477c-9.379-9.378-15.179-22.333-15.179-36.643 0-14.31 5.801-27.266 15.179-36.643l92.164-89.487 391.234 388.643c-60.745 60.702-180.797 74.141-241.429 13.453zM977.010 486.538l-275.609 278.328-86.043 86.043-391.277-388.643 361.708-364.313c9.382-9.368 22.336-15.161 36.643-15.161s27.262 5.794 36.644 15.162l317.933 315.298c9.368 9.382 15.161 22.336 15.161 36.643s-5.794 27.262-15.162 36.644z" p-id="3258" fill="#9ab643"></path></svg>